<svg xmlns="http://www.w3.org/2000/svg" viewBox="0 0 76.78 76.79"><defs><style>.cls-1{fill:#fff;}</style></defs><title>ijjZWT.tif</title><g id="Capa_2" data-name="Capa 2"><g id="Capa_1-2" data-name="Capa 1"><g id="ijjZWT.tif"><path class="cls-1" d="M42,76.79h-7.2a7.52,7.52,0,0,0-1.4-.49C11.3,73.09-3.23,53.18.62,31.43a38.32,38.32,0,0,1,73.75-6.08c1,2.86,1.62,5.88,2.41,8.82v8.41a4,4,0,0,0-.5,1C73.94,58.49,65.6,68.65,51.74,74.26,48.65,75.51,45.24,76,42,76.79ZM23.79,47.45v-18h-17a28.49,28.49,0,0,0-.39,16.53A2.4,2.4,0,0,0,8.1,47.38C13.28,47.5,18.46,47.45,23.79,47.45ZM52.94,29.4V47.34H70A29.09,29.09,0,0,0,70,29.4Zm-23.37,0V47.24H47.16V29.41Zm16.77-5.68c-.79-6.1-2.07-11.77-5.6-16.66-1.61-2.22-3.15-2.21-4.77,0C32.45,12,31.18,17.67,30.4,23.73ZM30.34,53c.91,6.12,2.14,11.87,5.77,16.83,1.18,1.61,2.78,2.14,4.2.33,3.93-5,5.18-10.9,6-17.16ZM8.94,23.89c4.25,0,8.12-.17,12,.06,2.86.17,4.1-.52,4.59-3.68.71-4.52,2.34-8.9,3.59-13.36C20.84,8.92,12.83,15.54,8.94,23.89Zm59.08,0c-4.84-8.79-11.37-14.4-20.21-17,1.32,5.35,2.56,10.54,3.93,15.7a2.21,2.21,0,0,0,1.62,1.27C58,23.93,62.71,23.88,68,23.88Zm-59.25,29C13.5,61.67,20.07,67.22,29,69.93,27.63,64.61,26.39,59.43,25,54.3a2.47,2.47,0,0,0-1.83-1.38C18.58,52.81,14,52.86,8.77,52.86Zm59.19,0c-5.2,0-9.87,0-14.53.06a2.21,2.21,0,0,0-1.67,1.21c-1.4,5.22-2.66,10.47-4,15.82C56.7,67.17,63.3,61.64,68,52.86Z"/></g></g></g></svg>