<svg xmlns="http://www.w3.org/2000/svg" xmlns:xlink="http://www.w3.org/1999/xlink" viewBox="0 0 249 59.7"><defs><style>.cls-1{fill:url(#Degradado_sin_nombre_4);}.cls-2{fill:url(#Degradado_sin_nombre_4-2);}.cls-3{fill:url(#Degradado_sin_nombre_4-3);}.cls-4{fill:url(#Degradado_sin_nombre_4-4);}.cls-5{fill:url(#Degradado_sin_nombre_4-5);}.cls-6{fill:url(#Degradado_sin_nombre_4-6);}.cls-7{fill:url(#Degradado_sin_nombre_4-7);}.cls-8{fill:url(#Degradado_sin_nombre_4-8);}.cls-9{fill:url(#Degradado_sin_nombre_4-9);}.cls-10{fill:url(#Degradado_sin_nombre_4-10);}.cls-11{fill:url(#Degradado_sin_nombre_4-11);}.cls-12{fill:url(#Degradado_sin_nombre_4-12);}.cls-13{fill:url(#Degradado_sin_nombre_4-13);}.cls-14{fill:url(#Degradado_sin_nombre_4-14);}.cls-15{fill:url(#Degradado_sin_nombre_4-15);}.cls-16{fill:url(#Degradado_sin_nombre_4-16);}.cls-17{fill:url(#Degradado_sin_nombre_4-17);}.cls-18{fill:url(#Degradado_sin_nombre_4-18);}.cls-19{fill:url(#Degradado_sin_nombre_4-19);}.cls-20{fill:url(#Degradado_sin_nombre_4-20);}.cls-21{fill:#ebde00;}.cls-22{fill:#ffa030;}.cls-23{fill:#70807e;stroke:#70807e;stroke-miterlimit:10;stroke-width:2px;}</style><linearGradient id="Degradado_sin_nombre_4" x1="0.42" y1="37.25" x2="1.97" y2="37.25" gradientUnits="userSpaceOnUse"><stop offset="0" stop-color="#005b81"/><stop offset="1" stop-color="#00a0d8"/></linearGradient><linearGradient id="Degradado_sin_nombre_4-2" x1="0" y1="28.67" x2="4.38" y2="28.67" xlink:href="#Degradado_sin_nombre_4"/><linearGradient id="Degradado_sin_nombre_4-3" x1="1.65" y1="17.56" x2="12.16" y2="17.56" xlink:href="#Degradado_sin_nombre_4"/><linearGradient id="Degradado_sin_nombre_4-4" x1="15.73" y1="1.87" x2="25.72" y2="1.87" xlink:href="#Degradado_sin_nombre_4"/><linearGradient id="Degradado_sin_nombre_4-5" x1="7.66" y1="7.09" x2="19.5" y2="7.09" xlink:href="#Degradado_sin_nombre_4"/><linearGradient id="Degradado_sin_nombre_4-6" x1="3.62" y1="45.01" x2="9.33" y2="45.01" xlink:href="#Degradado_sin_nombre_4"/><linearGradient id="Degradado_sin_nombre_4-7" x1="4.23" y1="35.33" x2="12.86" y2="35.33" xlink:href="#Degradado_sin_nombre_4"/><linearGradient id="Degradado_sin_nombre_4-8" x1="7.03" y1="22.46" x2="23.75" y2="22.46" xlink:href="#Degradado_sin_nombre_4"/><linearGradient id="Degradado_sin_nombre_4-9" x1="25.56" y1="2.45" x2="37.92" y2="2.45" xlink:href="#Degradado_sin_nombre_4"/><linearGradient id="Degradado_sin_nombre_4-10" x1="17.23" y1="8.78" x2="31.38" y2="8.78" xlink:href="#Degradado_sin_nombre_4"/><linearGradient id="Degradado_sin_nombre_4-11" x1="10.57" y1="52.54" x2="23.53" y2="52.54" xlink:href="#Degradado_sin_nombre_4"/><linearGradient id="Degradado_sin_nombre_4-12" x1="21.79" y1="57.68" x2="33.99" y2="57.68" xlink:href="#Degradado_sin_nombre_4"/><linearGradient id="Degradado_sin_nombre_4-13" x1="12.46" y1="44.66" x2="31.55" y2="44.66" xlink:href="#Degradado_sin_nombre_4"/><linearGradient id="Degradado_sin_nombre_4-14" x1="16.1" y1="30.58" x2="44.64" y2="30.58" xlink:href="#Degradado_sin_nombre_4"/><linearGradient id="Degradado_sin_nombre_4-15" x1="28.63" y1="15.41" x2="48.35" y2="15.41" xlink:href="#Degradado_sin_nombre_4"/><linearGradient id="Degradado_sin_nombre_4-16" x1="35.92" y1="7.96" x2="50.1" y2="7.96" xlink:href="#Degradado_sin_nombre_4"/><linearGradient id="Degradado_sin_nombre_4-17" x1="31.48" y1="54.21" x2="46.13" y2="54.21" xlink:href="#Degradado_sin_nombre_4"/><linearGradient id="Degradado_sin_nombre_4-18" x1="38.44" y1="39.7" x2="55.88" y2="39.7" xlink:href="#Degradado_sin_nombre_4"/><linearGradient id="Degradado_sin_nombre_4-19" x1="49.7" y1="21.75" x2="57.76" y2="21.75" xlink:href="#Degradado_sin_nombre_4"/><linearGradient id="Degradado_sin_nombre_4-20" x1="59.11" y1="32.04" x2="59.76" y2="32.04" xlink:href="#Degradado_sin_nombre_4"/></defs><title>logo</title><g id="Capa_2" data-name="Capa 2"><g id="Capa_1-2" data-name="Capa 1"><path class="cls-1" d="M2,37.1C1.43,36.35.91,35.59.42,34.8a28.77,28.77,0,0,0,1.27,4.91C1.76,38.88,1.85,38,2,37.1Z"/><path class="cls-2" d="M4.38,26.55Q2.61,24.78.82,22.86a29.54,29.54,0,0,0-.82,7c0,.57,0,1.14.05,1.7.68.93,1.45,1.92,2.32,3A55.93,55.93,0,0,1,4.38,26.55Z"/><path class="cls-3" d="M12.16,12c-2.1-.49-3.93-.85-5.42-1.09A29.79,29.79,0,0,0,1.65,20c1,1.23,2.17,2.64,3.59,4.18A48.34,48.34,0,0,1,12.16,12Z"/><path class="cls-4" d="M21.18,3.25a53.39,53.39,0,0,1,4.54-3,29.81,29.81,0,0,0-10,3.27C17.64,3.32,19.45,3.25,21.18,3.25Z"/><path class="cls-5" d="M13.87,10A47.66,47.66,0,0,1,19.5,4.56c-1.91-.2-3.62-.3-5-.35A30.27,30.27,0,0,0,7.66,9.85,51.09,51.09,0,0,1,13.87,10Z"/><path class="cls-6" d="M9.33,45.23a51.43,51.43,0,0,1-5.47-5.66c-.14,1.45-.22,2.94-.24,4.48a29.84,29.84,0,0,0,4.67,6.41C8.57,48.67,8.93,46.93,9.33,45.23Z"/><path class="cls-7" d="M12.86,34.27q-3.28-2.73-6.65-5.93a49.57,49.57,0,0,0-2,8.27,71.63,71.63,0,0,0,5.86,5.71A72.44,72.44,0,0,1,12.86,34.27Z"/><path class="cls-8" d="M23.75,15.54c-3.16-1.17-6.1-2.09-8.71-2.8A46.78,46.78,0,0,0,7,26.07a87,87,0,0,0,6.73,6.11A81.87,81.87,0,0,1,23.75,15.54Z"/><path class="cls-9" d="M37.92,1.05A29.73,29.73,0,0,0,31.7,0a44.05,44.05,0,0,0-6.14,3.45A41.8,41.8,0,0,1,33.43,4.9C35.3,3.16,36.86,1.87,37.92,1.05Z"/><path class="cls-10" d="M31.38,6.88a67.76,67.76,0,0,0-8.11-1.82,52.25,52.25,0,0,0-6,5.29,54,54,0,0,1,9,2.14C28,10.35,29.77,8.48,31.38,6.88Z"/><path class="cls-11" d="M23.53,54.85a71.94,71.94,0,0,1-11.84-7.61c-.53,2.17-.89,4-1.12,5.37a29.85,29.85,0,0,0,8.93,5.23C20.41,57.24,21.81,56.25,23.53,54.85Z"/><path class="cls-12" d="M21.79,58.59a30,30,0,0,0,8.09,1.11A29.24,29.24,0,0,0,34,59.41a90.68,90.68,0,0,1-8.85-3.76A12.51,12.51,0,0,1,21.79,58.59Z"/><path class="cls-13" d="M31.55,47.06A116.77,116.77,0,0,1,15.21,36.19c-1.15,2.94-2.05,5.68-2.75,8.13a95.41,95.41,0,0,0,13.09,8.8A69.07,69.07,0,0,0,31.55,47.06Z"/><path class="cls-14" d="M44.64,26.07a107.51,107.51,0,0,0-18.48-9.6A84.16,84.16,0,0,0,16.1,34,99.11,99.11,0,0,0,33.54,44.69,78.31,78.31,0,0,0,44.64,26.07Z"/><path class="cls-15" d="M48.35,15.4A48.69,48.69,0,0,0,33.86,7.67a76.35,76.35,0,0,0-5.23,5.69,67.73,67.73,0,0,1,17.18,9.79Q47.21,19.49,48.35,15.4Z"/><path class="cls-16" d="M48.71,14c.52-2,1-4.06,1.39-6.2a29.77,29.77,0,0,0-9.66-6c-1.59,1.25-3.09,2.53-4.52,3.84A32.36,32.36,0,0,1,48.71,14Z"/><path class="cls-17" d="M46.13,53.55a80.15,80.15,0,0,1-9.62-3.93c-1.53,2.12-3.2,4.32-5,6.61,1.8.87,3.69,1.74,5.67,2.58a29.58,29.58,0,0,0,6.16-2.31A36.17,36.17,0,0,0,46.13,53.55Z"/><path class="cls-18" d="M55.88,34.42q-3.6-3-7.19-5.6A105.12,105.12,0,0,1,38.44,46.9c3.13,1.32,6.46,2.56,10,3.68A48.58,48.58,0,0,0,55.88,34.42Z"/><path class="cls-19" d="M56.29,32.72a62.26,62.26,0,0,0,1.47-13.65,29.83,29.83,0,0,0-4.86-8.29,32.41,32.41,0,0,1-.83,7.77c.15.26.22.4.22.4s-.17-.16-.25-.25a53.07,53.07,0,0,1-2.34,7.63A90.92,90.92,0,0,1,56.29,32.72Z"/><path class="cls-20" d="M59.71,28.16a32.53,32.53,0,0,1-.6,7.73l0,0a30.63,30.63,0,0,0,.62-6.1C59.76,29.26,59.74,28.71,59.71,28.16Z"/><path class="cls-21" d="M59.71,28.16s4,1.51,3.22,9.09c0,0-2.31-2.39-3.79-1.33Z"/><path class="cls-21" d="M61.08,37.89S59.62,46,53.73,51.48c0,0,5.08.91,5.41,1.06s5-4.08,5.9-11.63Z"/><path class="cls-21" d="M56.85,53.76l-4.78,3.92a15.86,15.86,0,0,0,4.52.16c1.81-.33,5.59-3.63,5.59-3.63Z"/><path class="cls-22" d="M83.42,45.53c-1.74,0-3.25-.06-4.54-.19a13,13,0,0,1-3.27-.71,5.66,5.66,0,0,1-2.21-1.44,6.3,6.3,0,0,1-1.35-2.41,16.14,16.14,0,0,1-.66-3.58c-.12-1.41-.18-3.07-.18-5v-.79q0-2.84.18-4.92a16.16,16.16,0,0,1,.66-3.57,6.61,6.61,0,0,1,1.33-2.42A5.74,5.74,0,0,1,75.59,19a12.34,12.34,0,0,1,3.28-.73c1.28-.13,2.79-.2,4.55-.2h.86a40.13,40.13,0,0,1,5.88.34,7.55,7.55,0,0,1,3.42,1.22,4.21,4.21,0,0,1,1.59,2.44,17.16,17.16,0,0,1,.39,4v.75H92.9v-.47a12.13,12.13,0,0,0-.24-2.66,2.6,2.6,0,0,0-1.14-1.64,6.38,6.38,0,0,0-2.62-.81,40.83,40.83,0,0,0-4.69-.21h-.72c-1.42,0-2.64,0-3.65.12a9.94,9.94,0,0,0-2.6.49,4.15,4.15,0,0,0-1.7,1.08,4.82,4.82,0,0,0-1,1.87,13.62,13.62,0,0,0-.47,2.86C74,28.65,74,30,74,31.58v.47c0,1.56,0,2.9.11,4a12.7,12.7,0,0,0,.45,2.84,4.84,4.84,0,0,0,1,1.85,4.09,4.09,0,0,0,1.69,1.11,9.89,9.89,0,0,0,2.61.51c1,.08,2.26.12,3.7.12h.72a40.85,40.85,0,0,0,4.84-.22,6.3,6.3,0,0,0,2.69-.81,2.61,2.61,0,0,0,1.17-1.65,12.37,12.37,0,0,0,.26-2.8v-.39h2.69v.86a14.7,14.7,0,0,1-.45,4A4.5,4.5,0,0,1,93.7,44a7.93,7.93,0,0,1-3.51,1.24,42.21,42.21,0,0,1-5.88.33Z"/><path class="cls-22" d="M103,45.22h-2.76V18.42H103Z"/><path class="cls-23" d="M121.82,39.75a5,5,0,0,1-3.65,1.48,5.22,5.22,0,0,1-3-.74,4.32,4.32,0,0,1-1.29-1.3V50h-1.87V19.12h1.87v1.77a4.44,4.44,0,0,1,1.29-1.3,5,5,0,0,1,3-.82,5.2,5.2,0,0,1,3.65,1.47c1.48,1.43,1.87,4.08,1.87,9.76S123.3,38.32,121.82,39.75Zm-1.43-18.51a3.71,3.71,0,0,0-2.56-1,4,4,0,0,0-2.61.87,4.16,4.16,0,0,0-1.29,3.38v11a4.17,4.17,0,0,0,1.29,3.39,4,4,0,0,0,2.61.86,3.71,3.71,0,0,0,2.56-1c1.28-1.26,1.43-3.56,1.43-8.76S121.67,22.5,120.39,21.24Z"/><path class="cls-23" d="M136.21,20.24c-3.15,0-5,1.69-5,4.43V40.88h-1.88V19.12h1.88v2.29A4,4,0,0,1,132,20.2a6.13,6.13,0,0,1,4.39-1.43v1.47Z"/><path class="cls-23" d="M149.32,39.71a6.26,6.26,0,0,1-8.18,0c-1.48-1.43-1.87-4-1.87-9.71s.39-8.28,1.87-9.71a6.26,6.26,0,0,1,8.18,0c1.48,1.43,1.88,4,1.88,9.71S150.8,38.28,149.32,39.71ZM147.9,21.24a4.05,4.05,0,0,0-5.33,0c-1.28,1.26-1.43,3.56-1.43,8.76s.15,7.5,1.43,8.76a4.08,4.08,0,0,0,5.33,0c1.28-1.26,1.42-3.56,1.42-8.76S149.18,22.5,147.9,21.24Z"/><path class="cls-23" d="M166,39.88a6.55,6.55,0,0,1-8.18-.17c-1.48-1.43-1.87-4-1.87-9.71s.39-8.28,1.87-9.71A6.72,6.72,0,0,1,166,20c1.43,1.25,1.58,2.9,1.58,4.59h-1.82a4.28,4.28,0,0,0-1.09-3.47,3.72,3.72,0,0,0-2.71-.91,3.92,3.92,0,0,0-2.71,1C158,22.5,157.8,24.8,157.8,30s.15,7.5,1.43,8.76a4.29,4.29,0,0,0,5.32.13,4.26,4.26,0,0,0,1.19-3.52h1.82C167.56,37.46,167.17,38.8,166,39.88Z"/><path class="cls-23" d="M182,39.71a6.26,6.26,0,0,1-8.18,0c-1.48-1.43-1.87-4-1.87-9.71s.39-8.28,1.87-9.71a6.26,6.26,0,0,1,8.18,0c1.48,1.43,1.88,4,1.88,9.71S183.43,38.28,182,39.71Zm-1.43-18.47a4,4,0,0,0-5.32,0c-1.28,1.26-1.43,3.56-1.43,8.76s.15,7.5,1.43,8.76a4.07,4.07,0,0,0,5.32,0C181.81,37.5,182,35.2,182,30S181.81,22.5,180.52,21.24Z"/><path class="cls-23" d="M190.43,30c0,5.2.2,7.5,1.48,8.76a3.91,3.91,0,0,0,2.71,1,4.19,4.19,0,0,0,2.71-.86,4.3,4.3,0,0,0,1.28-3.52h1.83a5.34,5.34,0,0,1-1.73,4.47,6.17,6.17,0,0,1-4.09,1.39,5.78,5.78,0,0,1-4.14-1.52c-1.48-1.43-1.92-4-1.92-9.71s.39-8.28,1.87-9.71a6.26,6.26,0,0,1,8.18,0c1.48,1.43,1.88,4,1.88,9.71Zm6.75-8.76a4,4,0,0,0-5.32,0c-1.18,1.13-1.38,3.12-1.43,7.37h8.18C198.56,24.36,198.37,22.37,197.18,21.24Z"/><path class="cls-23" d="M213.4,40.88l-4.24-9.8-4.24,9.8h-2.07l5.32-11.1-5-10.66h2.07l3.94,9.4,3.94-9.4h2.07l-5.12,10.66,5.42,11.1Z"/><path class="cls-23" d="M229.47,39.75a5,5,0,0,1-3.65,1.48,5.27,5.27,0,0,1-3-.74,4.41,4.41,0,0,1-1.28-1.3V50h-1.87V19.12h1.87v1.77a4.53,4.53,0,0,1,1.28-1.3,5.1,5.1,0,0,1,3-.82,5.22,5.22,0,0,1,3.65,1.47c1.48,1.43,1.87,4.08,1.87,9.76S231,38.32,229.47,39.75ZM228,21.24a3.71,3.71,0,0,0-2.56-1,4.07,4.07,0,0,0-2.62.87,4.16,4.16,0,0,0-1.28,3.38v11a4.17,4.17,0,0,0,1.28,3.39,4.07,4.07,0,0,0,2.62.86,3.71,3.71,0,0,0,2.56-1c1.28-1.26,1.43-3.56,1.43-8.76S229.32,22.5,228,21.24Z"/><path class="cls-23" d="M246.13,39.71a6.26,6.26,0,0,1-8.18,0c-1.48-1.43-1.88-4-1.88-9.71s.4-8.28,1.88-9.71a6.26,6.26,0,0,1,8.18,0c1.48,1.43,1.87,4,1.87,9.71S247.61,38.28,246.13,39.71ZM244.7,21.24a4.05,4.05,0,0,0-5.33,0C238.09,22.5,238,24.8,238,30s.14,7.5,1.42,8.76a4.08,4.08,0,0,0,5.33,0c1.28-1.26,1.43-3.56,1.43-8.76S246,22.5,244.7,21.24Z"/></g></g></svg>