<svg xmlns="http://www.w3.org/2000/svg" viewBox="0 0 50.03 68.25"><defs><style>.cls-1{fill:#fff;}</style></defs><title>pqMpqn.tif</title><g id="Capa_2" data-name="Capa 2"><g id="Capa_1-2" data-name="Capa 1"><g id="pqMpqn.tif"><path class="cls-1" d="M37,68.25c-1-.2-2.12-.34-3.15-.59a28.28,28.28,0,0,1-8.55-3.84A47.58,47.58,0,0,1,14.38,53.9,67.39,67.39,0,0,1,6.89,42.64a65.14,65.14,0,0,1-3.83-8.48A50.55,50.55,0,0,1,.26,22.6,32,32,0,0,1,.5,12.83,17.18,17.18,0,0,1,6.86,1.89,7.49,7.49,0,0,1,10.23.66C11.32.45,12.41.27,13.5.06a2.42,2.42,0,0,1,2.86,1.51c1,2.53,2,5.07,2.95,7.61.48,1.26,1,2.5,1.45,3.76a4.46,4.46,0,0,1-.34,4l-.86,1.45a4.82,4.82,0,0,1-1.62,1.77c-2.56,1.63-3.45,4.09-3.23,7a21.19,21.19,0,0,0,2.19,7.43,49,49,0,0,0,4.5,7.7,20.79,20.79,0,0,0,5.08,5.25,7.29,7.29,0,0,0,8.12.49,2.79,2.79,0,0,1,1.08-.29c.63,0,1.27,0,1.9,0A5.14,5.14,0,0,1,42.34,50c2.29,2.95,4.67,5.84,7,8.74a2.51,2.51,0,0,1,0,3.42c-1.11,1.3-2.18,2.63-3.35,3.87a4.55,4.55,0,0,1-1.56.94A14.63,14.63,0,0,1,40,68.16a1.06,1.06,0,0,0-.25.09Z"/><path class="cls-1" d="M49.45,34a24.6,24.6,0,0,1-.74,5.93,1.44,1.44,0,0,1-1.13,1.19,1.23,1.23,0,0,1-1.39-.51,1.94,1.94,0,0,1-.27-1.12c.14-1.13.43-2.25.55-3.38a19.67,19.67,0,0,0-2.32-11.52,20,20,0,0,0-5.79-6.68,21.21,21.21,0,0,0-6.46-3.2,2.43,2.43,0,0,1-1-.64,1.23,1.23,0,0,1-.11-1.52,1.17,1.17,0,0,1,1.31-.68,16.83,16.83,0,0,1,2.6.76,22.36,22.36,0,0,1,6.07,3.48A23.17,23.17,0,0,1,49.45,34Z"/><path class="cls-1" d="M43.79,34.3c-.2,1.26-.4,2.65-.66,4a1.39,1.39,0,0,1-1.76,1.25,1.41,1.41,0,0,1-1-1.83,15,15,0,0,0,.15-6.53A14.36,14.36,0,0,0,36.69,24a14,14,0,0,0-6.17-3.72,1.76,1.76,0,0,1-1.32-1A1.43,1.43,0,0,1,31,17.43a31.82,31.82,0,0,1,3.28,1.28A16.69,16.69,0,0,1,40.45,24a16.36,16.36,0,0,1,2.87,6.64C43.52,31.82,43.62,33,43.79,34.3Z"/><path class="cls-1" d="M38,34c-.14,1-.25,2-.43,2.92a1.43,1.43,0,1,1-2.78-.58A8.48,8.48,0,0,0,34.46,31,8.58,8.58,0,0,0,29,25.85a2.73,2.73,0,0,1-.88-.41,1.35,1.35,0,0,1-.43-1.56A1.21,1.21,0,0,1,29.13,23,12.61,12.61,0,0,1,32,24.07a11,11,0,0,1,5.43,6.84A27.54,27.54,0,0,1,38,34Z"/><path class="cls-1" d="M32.19,34c-.08.51-.12,1-.24,1.55a1.41,1.41,0,0,1-2.79-.41,1.84,1.84,0,0,1,0-.33,3,3,0,0,0-2-3.5,1.38,1.38,0,0,1-1-1.88,1.44,1.44,0,0,1,1.94-.78A5.84,5.84,0,0,1,32.19,34Z"/></g></g></g></svg>