<?xml version="1.0" encoding="utf-8"?>
<!-- Generator: Adobe Illustrator 22.1.0, SVG Export Plug-In . SVG Version: 6.00 Build 0)  -->
<svg version="1.1" id="Capa_1" xmlns="http://www.w3.org/2000/svg" xmlns:xlink="http://www.w3.org/1999/xlink" x="0px" y="0px"
	 viewBox="0 0 48 35" style="enable-background:new 0 0 48 35;" xml:space="preserve">
<style type="text/css">
	.st0{fill:#FFFFFF;}
</style>
<title>Recurso 25</title>
<g id="Capa_2_1_">
	<g id="Capa_1-2">
		<g id="b7uJEY.tif">
			<path class="st0" d="M36.6,17.2v1.1c-0.5,0.7-1.1,1-2,1c-7.1,0-14.1,0-21.2,0c-1.1,0-1.7-0.2-2-1v-1.1c0.5-0.7,1.1-1,2-1
				c7.1,0,14.1,0,21.2,0C35.5,16.2,36.2,16.6,36.6,17.2z"/>
			<path class="st0" d="M36.6,22.1v1.1c-0.5,0.7-1.1,1-2,1c-7.1,0-14.1,0-21.2,0c-1.1,0-1.7-0.2-2-1v-1.1c0.5-0.7,1.1-1,2-1
				c7.1,0,14.1,0,21.2,0C35.5,21.1,36.2,21.4,36.6,22.1z"/>
			<path class="st0" d="M36.6,12.2v1.1c-0.5,0.7-1.1,1-2,1c-7.1,0-14.1,0-21.2,0c-1.1,0-1.7-0.2-2-1v-1.1c0.5-0.7,1.1-1,2-1
				c7.1,0,14.1,0,21.2,0C35.5,11.2,36.2,11.6,36.6,12.2z"/>
		</g>
	</g>
</g>
</svg>
